<svg width="133" height="131" viewBox="0 0 133 131" fill="none" xmlns="http://www.w3.org/2000/svg">
<path fill-rule="evenodd" clip-rule="evenodd" d="M38.4161 15.8125H94.5828C98.24 15.8128 101.77 17.1575 104.5 19.5909C107.23 22.0242 108.97 25.3764 109.39 29.0095L117.419 98.572C117.66 100.66 117.457 102.775 116.823 104.779C116.189 106.782 115.138 108.629 113.74 110.198C112.342 111.768 110.627 113.023 108.71 113.883C106.792 114.743 104.714 115.187 102.612 115.188H30.3866C28.2849 115.187 26.207 114.743 24.2893 113.883C22.3715 113.023 20.6573 111.768 19.259 110.198C17.8608 108.629 16.8101 106.782 16.176 104.779C15.5419 102.775 15.3387 100.66 15.5797 98.572L23.6092 29.0095C24.0286 25.3764 25.7689 22.0242 28.4991 19.5909C31.2293 17.1575 34.7588 15.8128 38.4161 15.8125ZM8.80232 27.3003C9.64104 20.034 13.1218 13.3297 18.5822 8.463C24.0426 3.59627 31.1016 0.906767 38.4161 0.90625H94.5828C101.897 0.906767 108.956 3.59627 114.417 8.463C119.877 13.3297 123.358 20.034 124.197 27.3003L132.226 96.8628C132.708 101.038 132.302 105.269 131.033 109.276C129.765 113.284 127.664 116.978 124.867 120.116C122.071 123.254 118.642 125.765 114.807 127.485C110.971 129.204 106.816 130.093 102.612 130.094H30.3866C26.1832 130.093 22.0275 129.204 18.192 127.485C14.3565 125.765 10.928 123.254 8.13152 120.116C5.33502 116.978 3.23371 113.284 1.9655 109.276C0.697286 105.269 0.290834 101.038 0.772817 96.8628L8.80232 27.3003ZM36.6869 38.1719C36.6869 36.1952 37.4722 34.2994 38.8699 32.9017C40.2676 31.504 42.1634 30.7188 44.1401 30.7188C46.1168 30.7188 48.0125 31.504 49.4102 32.9017C50.808 34.2994 51.5932 36.1952 51.5932 38.1719V40.6562C51.5932 44.6096 53.1637 48.4011 55.9591 51.1966C58.7546 53.992 62.5461 55.5625 66.4994 55.5625C70.4528 55.5625 74.2443 53.992 77.0398 51.1966C79.8352 48.4011 81.4057 44.6096 81.4057 40.6562V38.1719C81.4057 36.1952 82.1909 34.2994 83.5887 32.9017C84.9864 31.504 86.8821 30.7188 88.8588 30.7188C90.8355 30.7188 92.7312 31.504 94.129 32.9017C95.5267 34.2994 96.3119 36.1952 96.3119 38.1719V40.6562C96.3119 48.563 93.171 56.1459 87.5801 61.7369C81.9891 67.3278 74.4062 70.4688 66.4994 70.4688C58.5927 70.4688 51.0098 67.3278 45.4188 61.7369C39.8279 56.1459 36.6869 48.563 36.6869 40.6562V38.1719Z" fill="#F5F5F5"/>
</svg>
